<svg width="107" height="282" viewBox="0 0 107 282" fill="none" xmlns="http://www.w3.org/2000/svg">
<path d="M84.6469 3.37246C82.9827 0.506992 79.3038 -0.476114 76.5011 1.29183C53.6423 15.7113 34.6732 35.576 21.3177 59.1436C6.97495 84.4533 -0.377343 113.123 0.0149087 142.211C0.40716 171.3 8.52984 199.761 23.5498 224.674C37.536 247.873 57.0338 267.219 80.2732 281.017C83.1225 282.709 86.7735 281.627 88.3599 278.718L106.169 246.057C107.755 243.148 106.673 239.517 103.851 237.781C88.2615 228.191 75.1646 214.996 65.6849 199.272C55.1709 181.832 49.485 161.91 49.2104 141.548C48.9359 121.186 54.0825 101.117 64.1224 83.4005C73.1746 67.4266 85.911 53.8829 101.236 43.8765C104.011 42.0648 104.994 38.4059 103.33 35.5405L84.6469 3.37246Z" fill="url(#paint0_radial)" fill-opacity="0.5"/>
<defs>
<radialGradient id="paint0_radial" cx="0" cy="0" r="1" gradientUnits="userSpaceOnUse" gradientTransform="translate(163.486 140.514) rotate(90) scale(163.486)">
<stop offset="0.71875" stop-color="#4D4D4D"/>
<stop offset="1" stop-color="#382900"/>
</radialGradient>
</defs>
</svg>
