<svg xmlns="http://www.w3.org/2000/svg" xmlns:xlink="http://www.w3.org/1999/xlink"><defs><style>
    .sprite-symbol-usage {display: none;}
    .sprite-symbol-usage:target {display: inline;}
  </style><symbol fill="none" viewBox="0 0 64 64" id="button-dark"><path fill-rule="evenodd" clip-rule="evenodd" d="M32 62c16.569 0 30-13.431 30-30C62 15.431 48.569 2 32 2 15.431 2 2 15.431 2 32c0 16.569 13.431 30 30 30zm0 2c17.673 0 32-14.327 32-32C64 14.327 49.673 0 32 0 14.327 0 0 14.327 0 32c0 17.673 14.327 32 32 32zm27-32c0 14.912-12.088 27-27 27S5 46.912 5 32 17.088 5 32 5s27 12.088 27 27zm-33.94-4.06a1.5 1.5 0 0 0-2.12 2.12l8 8a1.5 1.5 0 0 0 2.12 0l8-8a1.5 1.5 0 0 0-2.12-2.12L32 34.878l-6.94-6.94z" fill="#FCFBF7" /></symbol><symbol fill="none" viewBox="0 0 64 64" id="button-hover-dark"><path fill-rule="evenodd" clip-rule="evenodd" d="M32 62c16.569 0 30-13.431 30-30C62 15.431 48.569 2 32 2 15.431 2 2 15.431 2 32c0 16.569 13.431 30 30 30zm0 2c17.673 0 32-14.327 32-32C64 14.327 49.673 0 32 0 14.327 0 0 14.327 0 32c0 17.673 14.327 32 32 32zm27-32c0 14.912-12.088 27-27 27S5 46.912 5 32 17.088 5 32 5s27 12.088 27 27zm-33.94-4.06a1.5 1.5 0 0 0-2.12 2.12l8 8a1.5 1.5 0 0 0 2.12 0l8-8a1.5 1.5 0 0 0-2.12-2.12L32 34.878l-6.94-6.94z" fill="#918F8A" /></symbol><symbol fill="none" viewBox="0 0 64 64" id="button-hover-light"><path fill-rule="evenodd" clip-rule="evenodd" d="M32 62c16.569 0 30-13.431 30-30C62 15.431 48.569 2 32 2 15.431 2 2 15.431 2 32c0 16.569 13.431 30 30 30zm0 2c17.673 0 32-14.327 32-32C64 14.327 49.673 0 32 0 14.327 0 0 14.327 0 32c0 17.673 14.327 32 32 32zm27-32c0 14.912-12.088 27-27 27S5 46.912 5 32 17.088 5 32 5s27 12.088 27 27zm-33.94-4.06a1.5 1.5 0 0 0-2.12 2.12l8 8a1.5 1.5 0 0 0 2.12 0l8-8a1.5 1.5 0 0 0-2.12-2.12L32 34.878l-6.94-6.94z" fill="#BFBFBF" /></symbol><symbol fill="none" viewBox="0 0 64 64" id="button-light"><path clip-rule="evenodd" d="M32 62c16.569 0 30-13.431 30-30S48.569 2 32 2 2 15.431 2 32s13.431 30 30 30zm0 2c17.673 0 32-14.327 32-32S49.673 0 32 0 0 14.327 0 32s14.327 32 32 32zm27-32c0 14.912-12.088 27-27 27S5 46.912 5 32 17.088 5 32 5s27 12.088 27 27zm-33.94-4.06a1.5 1.5 0 0 0-2.12 2.12l8 8a1.5 1.5 0 0 0 2.12 0l8-8a1.5 1.5 0 0 0-2.12-2.12L32 34.878z" fill="#f4b000" fill-rule="evenodd" /></symbol><symbol fill="none" viewBox="0 0 34 73" id="extra-dark"><g mask="url(#extra-dark_b)"><g filter="url(#extra-dark_c)"><path d="M0 13.977a4 4 0 0 1 1.57-3.178l13-9.94a4 4 0 0 1 4.86 0l13 9.94A4 4 0 0 1 34 13.977v44.046a4 4 0 0 1-1.57 3.178l-13 9.94a4 4 0 0 1-4.86 0l-13-9.94A4 4 0 0 1 0 58.023V13.977z" fill="url(#extra-dark_d)" /></g><g filter="url(#extra-dark_e)"><path d="M34 59.012V12.988a2 2 0 0 0-.785-1.588L17-1v74l16.215-12.4A2 2 0 0 0 34 59.012z" fill="url(#extra-dark_f)" /></g><g filter="url(#extra-dark_g)"><path d="M17-1 0 12l14.57 11.142a4 4 0 0 0 4.86 0L34 12 17-1z" fill="url(#extra-dark_h)" fill-opacity=".8" /></g></g><defs><filter id="extra-dark_c" x="-1" y=".036" width="37" height="73.929" filterUnits="userSpaceOnUse" color-interpolation-filters="sRGB"><feFlood flood-opacity="0" result="BackgroundImageFix"></feFlood><feBlend in="SourceGraphic" in2="BackgroundImageFix" result="shape"></feBlend><feColorMatrix in="SourceAlpha" values="0 0 0 0 0 0 0 0 0 0 0 0 0 0 0 0 0 0 127 0" result="hardAlpha"></feColorMatrix><feOffset dx="2" dy="2"></feOffset><feGaussianBlur stdDeviation="5"></feGaussianBlur><feComposite in2="hardAlpha" operator="arithmetic" k2="-1" k3="1"></feComposite><feColorMatrix values="0 0 0 0 0.95 0 0 0 0 0.623 0 0 0 0 0.05 0 0 0 0.9 0"></feColorMatrix><feBlend in2="shape" result="effect1_innerShadow"></feBlend><feColorMatrix in="SourceAlpha" values="0 0 0 0 0 0 0 0 0 0 0 0 0 0 0 0 0 0 127 0" result="hardAlpha"></feColorMatrix><feOffset dx="-1" dy="1"></feOffset><feGaussianBlur stdDeviation=".5"></feGaussianBlur><feComposite in2="hardAlpha" operator="arithmetic" k2="-1" k3="1"></feComposite><feColorMatrix values="0 0 0 0 1 0 0 0 0 1 0 0 0 0 1 0 0 0 0.2 0"></feColorMatrix><feBlend in2="effect1_innerShadow" result="effect2_innerShadow"></feBlend></filter><filter id="extra-dark_e" x="13" y="-5" width="25" height="86" filterUnits="userSpaceOnUse" color-interpolation-filters="sRGB"><feFlood flood-opacity="0" result="BackgroundImageFix"></feFlood><feColorMatrix in="SourceAlpha" values="0 0 0 0 0 0 0 0 0 0 0 0 0 0 0 0 0 0 127 0"></feColorMatrix><feOffset dy="4"></feOffset><feGaussianBlur stdDeviation="2"></feGaussianBlur><feColorMatrix values="0 0 0 0 0 0 0 0 0 0 0 0 0 0 0 0 0 0 1 0"></feColorMatrix><feBlend in2="BackgroundImageFix" result="effect1_dropShadow"></feBlend><feBlend in="SourceGraphic" in2="effect1_dropShadow" result="shape"></feBlend><feColorMatrix in="SourceAlpha" values="0 0 0 0 0 0 0 0 0 0 0 0 0 0 0 0 0 0 127 0" result="hardAlpha"></feColorMatrix><feOffset dx="-1" dy="-1"></feOffset><feGaussianBlur stdDeviation=".5"></feGaussianBlur><feComposite in2="hardAlpha" operator="arithmetic" k2="-1" k3="1"></feComposite><feColorMatrix values="0 0 0 0 0.95 0 0 0 0 0.623 0 0 0 0 0.05 0 0 0 0.9 0"></feColorMatrix><feBlend in2="shape" result="effect2_innerShadow"></feBlend><feGaussianBlur stdDeviation="2" result="effect3_foregroundBlur"></feGaussianBlur></filter><filter id="extra-dark_g" x="-1" y="-2" width="37" height="27.965" filterUnits="userSpaceOnUse" color-interpolation-filters="sRGB"><feFlood flood-opacity="0" result="BackgroundImageFix"></feFlood><feBlend in="SourceGraphic" in2="BackgroundImageFix" result="shape"></feBlend><feColorMatrix in="SourceAlpha" values="0 0 0 0 0 0 0 0 0 0 0 0 0 0 0 0 0 0 127 0" result="hardAlpha"></feColorMatrix><feOffset dx="2" dy="2"></feOffset><feGaussianBlur stdDeviation="15.5"></feGaussianBlur><feComposite in2="hardAlpha" operator="arithmetic" k2="-1" k3="1"></feComposite><feColorMatrix values="0 0 0 0 0.95 0 0 0 0 0.623 0 0 0 0 0.05 0 0 0 0.9 0"></feColorMatrix><feBlend in2="shape" result="effect1_innerShadow"></feBlend><feColorMatrix in="SourceAlpha" values="0 0 0 0 0 0 0 0 0 0 0 0 0 0 0 0 0 0 127 0" result="hardAlpha"></feColorMatrix><feOffset dx="-2"></feOffset><feGaussianBlur stdDeviation=".5"></feGaussianBlur><feComposite in2="hardAlpha" operator="arithmetic" k2="-1" k3="1"></feComposite><feColorMatrix values="0 0 0 0 1 0 0 0 0 1 0 0 0 0 1 0 0 0 0.2 0"></feColorMatrix><feBlend in2="effect1_innerShadow" result="effect2_innerShadow"></feBlend><feGaussianBlur stdDeviation=".5" result="effect3_foregroundBlur"></feGaussianBlur></filter></defs></symbol><mask id="extra-dark_b" mask-type="alpha" maskUnits="userSpaceOnUse" x="0" y="0" width="34" height="72"><path d="M0 13.977a4 4 0 0 1 1.57-3.178l13-9.94a4 4 0 0 1 4.86 0l13 9.94A4 4 0 0 1 34 13.977v44.046a4 4 0 0 1-1.57 3.178l-13 9.94a4 4 0 0 1-4.86 0l-13-9.94A4 4 0 0 1 0 58.023V13.977z" fill="url(#extra-dark_a)" fill-opacity=".95" /></mask><radialGradient id="extra-dark_a" cx="0" cy="0" r="1" gradientUnits="userSpaceOnUse" gradientTransform="rotate(-102.092 40.368 20.958) scale(67.4131 846.864)"><stop stop-color="#201502" /><stop offset="1" stop-color="#C7830A" /></radialGradient><radialGradient id="extra-dark_d" cx="0" cy="0" r="1" gradientUnits="userSpaceOnUse" gradientTransform="rotate(-102.092 40.368 20.958) scale(67.4131 846.864)"><stop stop-color="#201502" /><stop offset="1" stop-color="#C7830A" /></radialGradient><radialGradient id="extra-dark_f" cx="0" cy="0" r="1" gradientUnits="userSpaceOnUse" gradientTransform="matrix(-10.00025 -53.77841 671.83617 -124.9299 31.967 61.356)"><stop stop-color="#201502" /><stop offset="1" stop-color="#C7830A" /></radialGradient><radialGradient id="extra-dark_h" cx="0" cy="0" r="1" gradientUnits="userSpaceOnUse" gradientTransform="rotate(-102.078 19.144 4.087) scale(61.741 1819.91)"><stop stop-color="#201502" /><stop offset="1" stop-color="#C7830A" /></radialGradient><symbol fill="none" viewBox="0 0 34 73" id="extra-light"><g mask="url(#extra-light_a)"><g filter="url(#extra-light_b)"><path d="M0 13.977a4 4 0 0 1 1.57-3.178l13-9.94a4 4 0 0 1 4.86 0l13 9.94A4 4 0 0 1 34 13.977v44.046a4 4 0 0 1-1.57 3.178l-13 9.94a4 4 0 0 1-4.86 0l-13-9.94A4 4 0 0 1 0 58.023V13.977z" fill="url(#extra-light_c)" /></g><g filter="url(#extra-light_d)"><path d="M34 59.012V12.988a2 2 0 0 0-.785-1.588L17-1v74l16.215-12.4A2 2 0 0 0 34 59.012z" fill="url(#extra-light_e)" fill-opacity=".4" /></g><g filter="url(#extra-light_f)"><path d="M14.57.858 0 12l14.57 11.142a4 4 0 0 0 4.86 0L34 12 19.43.858a4 4 0 0 0-4.86 0z" fill="url(#extra-light_g)" fill-opacity=".8" /></g></g><defs><filter id="extra-light_b" x="-1" y=".036" width="35" height="72.929" filterUnits="userSpaceOnUse" color-interpolation-filters="sRGB"><feFlood flood-opacity="0" result="BackgroundImageFix"></feFlood><feBlend in="SourceGraphic" in2="BackgroundImageFix" result="shape"></feBlend><feColorMatrix in="SourceAlpha" values="0 0 0 0 0 0 0 0 0 0 0 0 0 0 0 0 0 0 127 0" result="hardAlpha"></feColorMatrix><feOffset></feOffset><feGaussianBlur stdDeviation="10"></feGaussianBlur><feComposite in2="hardAlpha" operator="arithmetic" k2="-1" k3="1"></feComposite><feColorMatrix values="0 0 0 0 1 0 0 0 0 0.69 0 0 0 0 0.225 0 0 0 0.4 0"></feColorMatrix><feBlend in2="shape" result="effect1_innerShadow"></feBlend><feColorMatrix in="SourceAlpha" values="0 0 0 0 0 0 0 0 0 0 0 0 0 0 0 0 0 0 127 0" result="hardAlpha"></feColorMatrix><feOffset dx="-1" dy="1"></feOffset><feGaussianBlur stdDeviation=".5"></feGaussianBlur><feComposite in2="hardAlpha" operator="arithmetic" k2="-1" k3="1"></feComposite><feColorMatrix values="0 0 0 0 1 0 0 0 0 1 0 0 0 0 1 0 0 0 0.5 0"></feColorMatrix><feBlend in2="effect1_innerShadow" result="effect2_innerShadow"></feBlend></filter><filter id="extra-light_d" x="15" y="-3" width="21" height="78" filterUnits="userSpaceOnUse" color-interpolation-filters="sRGB"><feFlood flood-opacity="0" result="BackgroundImageFix"></feFlood><feBlend in="SourceGraphic" in2="BackgroundImageFix" result="shape"></feBlend><feColorMatrix in="SourceAlpha" values="0 0 0 0 0 0 0 0 0 0 0 0 0 0 0 0 0 0 127 0" result="hardAlpha"></feColorMatrix><feOffset></feOffset><feGaussianBlur stdDeviation="10"></feGaussianBlur><feComposite in2="hardAlpha" operator="arithmetic" k2="-1" k3="1"></feComposite><feColorMatrix values="0 0 0 0 1 0 0 0 0 0.69 0 0 0 0 0.225 0 0 0 0.6 0"></feColorMatrix><feBlend in2="shape" result="effect1_innerShadow"></feBlend><feColorMatrix in="SourceAlpha" values="0 0 0 0 0 0 0 0 0 0 0 0 0 0 0 0 0 0 127 0" result="hardAlpha"></feColorMatrix><feOffset dx="-1" dy="1"></feOffset><feGaussianBlur stdDeviation=".5"></feGaussianBlur><feComposite in2="hardAlpha" operator="arithmetic" k2="-1" k3="1"></feComposite><feColorMatrix values="0 0 0 0 1 0 0 0 0 1 0 0 0 0 1 0 0 0 0.5 0"></feColorMatrix><feBlend in2="effect1_innerShadow" result="effect2_innerShadow"></feBlend><feGaussianBlur stdDeviation="1" result="effect3_foregroundBlur"></feGaussianBlur></filter><filter id="extra-light_f" x="-1" y="-.964" width="37" height="26.929" filterUnits="userSpaceOnUse" color-interpolation-filters="sRGB"><feFlood flood-opacity="0" result="BackgroundImageFix"></feFlood><feBlend in="SourceGraphic" in2="BackgroundImageFix" result="shape"></feBlend><feColorMatrix in="SourceAlpha" values="0 0 0 0 0 0 0 0 0 0 0 0 0 0 0 0 0 0 127 0" result="hardAlpha"></feColorMatrix><feOffset dx="2" dy="2"></feOffset><feGaussianBlur stdDeviation="8"></feGaussianBlur><feComposite in2="hardAlpha" operator="arithmetic" k2="-1" k3="1"></feComposite><feColorMatrix values="0 0 0 0 1 0 0 0 0 0.72 0 0 0 0 0 0 0 0 0.2 0"></feColorMatrix><feBlend in2="shape" result="effect1_innerShadow"></feBlend><feColorMatrix in="SourceAlpha" values="0 0 0 0 0 0 0 0 0 0 0 0 0 0 0 0 0 0 127 0" result="hardAlpha"></feColorMatrix><feOffset dx="-2"></feOffset><feGaussianBlur stdDeviation=".5"></feGaussianBlur><feComposite in2="hardAlpha" operator="arithmetic" k2="-1" k3="1"></feComposite><feColorMatrix values="0 0 0 0 1 0 0 0 0 1 0 0 0 0 1 0 0 0 0.6 0"></feColorMatrix><feBlend in2="effect1_innerShadow" result="effect2_innerShadow"></feBlend><feGaussianBlur stdDeviation=".5" result="effect3_foregroundBlur"></feGaussianBlur></filter></defs></symbol><mask id="extra-light_a" mask-type="alpha" maskUnits="userSpaceOnUse" x="0" y="0" width="34" height="72"><path opacity=".92" d="M0 13.977a4 4 0 0 1 1.57-3.178l13-9.94a4 4 0 0 1 4.86 0l13 9.94A4 4 0 0 1 34 13.977v44.046a4 4 0 0 1-1.57 3.178l-13 9.94a4 4 0 0 1-4.86 0l-13-9.94A4 4 0 0 1 0 58.023V13.977z" fill="#261C00" /></mask><radialGradient id="extra-light_c" cx="0" cy="0" r="1" gradientUnits="userSpaceOnUse" gradientTransform="rotate(67.529 -9.481 .387) scale(103.347 27.7985)"><stop stop-color="#FFDD9C" /><stop offset="1" stop-color="#FFD363" /></radialGradient><radialGradient id="extra-light_e" cx="0" cy="0" r="1" gradientUnits="userSpaceOnUse" gradientTransform="matrix(0 47 -10.7977 0 25 21)"><stop stop-color="#FFB800" /><stop offset="1" stop-color="#FFEF99" stop-opacity=".87" /></radialGradient><radialGradient id="extra-light_g" cx="0" cy="0" r="1" gradientUnits="userSpaceOnUse" gradientTransform="matrix(-98.00021 -30.4505 663.94575 -2136.8061 30.5 17.95)"><stop stop-color="#FFFAED" /><stop offset="1" stop-color="#FFB800" /></radialGradient><symbol fill="none" viewBox="0 0 34 57" id="max-dark"><g mask="url(#max-dark_b)"><g filter="url(#max-dark_c)"><path d="M0 13.977a4 4 0 0 1 1.57-3.178l13-9.94a4 4 0 0 1 4.86 0l13 9.94A4 4 0 0 1 34 13.977v28.046a4 4 0 0 1-1.57 3.178l-13 9.94a4 4 0 0 1-4.86 0l-13-9.94A4 4 0 0 1 0 42.023V13.977z" fill="url(#max-dark_d)" fill-opacity=".9" /></g><g filter="url(#max-dark_e)"><path d="M34 43.012V12.988a2 2 0 0 0-.785-1.588L17-1v58l16.215-12.4A2 2 0 0 0 34 43.012z" fill="url(#max-dark_f)" /></g><g filter="url(#max-dark_g)"><path d="M17-1 0 12l14.57 11.142a4 4 0 0 0 4.86 0L34 12 17-1z" fill="url(#max-dark_h)" fill-opacity=".8" /></g></g><defs><filter id="max-dark_c" x="-1" y=".036" width="37" height="57.929" filterUnits="userSpaceOnUse" color-interpolation-filters="sRGB"><feFlood flood-opacity="0" result="BackgroundImageFix"></feFlood><feBlend in="SourceGraphic" in2="BackgroundImageFix" result="shape"></feBlend><feColorMatrix in="SourceAlpha" values="0 0 0 0 0 0 0 0 0 0 0 0 0 0 0 0 0 0 127 0" result="hardAlpha"></feColorMatrix><feOffset dx="2" dy="2"></feOffset><feGaussianBlur stdDeviation="5"></feGaussianBlur><feComposite in2="hardAlpha" operator="arithmetic" k2="-1" k3="1"></feComposite><feColorMatrix values="0 0 0 0 0.95 0 0 0 0 0.623 0 0 0 0 0.05 0 0 0 0.2 0"></feColorMatrix><feBlend in2="shape" result="effect1_innerShadow"></feBlend><feColorMatrix in="SourceAlpha" values="0 0 0 0 0 0 0 0 0 0 0 0 0 0 0 0 0 0 127 0" result="hardAlpha"></feColorMatrix><feOffset dx="-1" dy="1"></feOffset><feGaussianBlur stdDeviation=".5"></feGaussianBlur><feComposite in2="hardAlpha" operator="arithmetic" k2="-1" k3="1"></feComposite><feColorMatrix values="0 0 0 0 1 0 0 0 0 1 0 0 0 0 1 0 0 0 0.2 0"></feColorMatrix><feBlend in2="effect1_innerShadow" result="effect2_innerShadow"></feBlend></filter><filter id="max-dark_e" x="12" y="-6" width="27" height="71" filterUnits="userSpaceOnUse" color-interpolation-filters="sRGB"><feFlood flood-opacity="0" result="BackgroundImageFix"></feFlood><feColorMatrix in="SourceAlpha" values="0 0 0 0 0 0 0 0 0 0 0 0 0 0 0 0 0 0 127 0"></feColorMatrix><feOffset dy="4"></feOffset><feGaussianBlur stdDeviation="2"></feGaussianBlur><feColorMatrix values="0 0 0 0 0 0 0 0 0 0 0 0 0 0 0 0 0 0 1 0"></feColorMatrix><feBlend in2="BackgroundImageFix" result="effect1_dropShadow"></feBlend><feBlend in="SourceGraphic" in2="effect1_dropShadow" result="shape"></feBlend><feColorMatrix in="SourceAlpha" values="0 0 0 0 0 0 0 0 0 0 0 0 0 0 0 0 0 0 127 0" result="hardAlpha"></feColorMatrix><feOffset dx="-2" dy="-1"></feOffset><feGaussianBlur stdDeviation=".5"></feGaussianBlur><feComposite in2="hardAlpha" operator="arithmetic" k2="-1" k3="1"></feComposite><feColorMatrix values="0 0 0 0 1 0 0 0 0 1 0 0 0 0 1 0 0 0 0.2 0"></feColorMatrix><feBlend in2="shape" result="effect2_innerShadow"></feBlend><feGaussianBlur stdDeviation="2.5" result="effect3_foregroundBlur"></feGaussianBlur></filter><filter id="max-dark_g" x="-1" y="-2" width="37" height="27.965" filterUnits="userSpaceOnUse" color-interpolation-filters="sRGB"><feFlood flood-opacity="0" result="BackgroundImageFix"></feFlood><feBlend in="SourceGraphic" in2="BackgroundImageFix" result="shape"></feBlend><feColorMatrix in="SourceAlpha" values="0 0 0 0 0 0 0 0 0 0 0 0 0 0 0 0 0 0 127 0" result="hardAlpha"></feColorMatrix><feOffset dx="2" dy="2"></feOffset><feGaussianBlur stdDeviation="8"></feGaussianBlur><feComposite in2="hardAlpha" operator="arithmetic" k2="-1" k3="1"></feComposite><feColorMatrix values="0 0 0 0 0.95 0 0 0 0 0.623 0 0 0 0 0.05 0 0 0 0.2 0"></feColorMatrix><feBlend in2="shape" result="effect1_innerShadow"></feBlend><feColorMatrix in="SourceAlpha" values="0 0 0 0 0 0 0 0 0 0 0 0 0 0 0 0 0 0 127 0" result="hardAlpha"></feColorMatrix><feOffset dx="-2"></feOffset><feGaussianBlur stdDeviation=".5"></feGaussianBlur><feComposite in2="hardAlpha" operator="arithmetic" k2="-1" k3="1"></feComposite><feColorMatrix values="0 0 0 0 0.922292 0 0 0 0 0.60255 0 0 0 0 0.0485417 0 0 0 0.5 0"></feColorMatrix><feBlend in2="effect1_innerShadow" result="effect2_innerShadow"></feBlend><feGaussianBlur stdDeviation=".5" result="effect3_foregroundBlur"></feGaussianBlur></filter></defs></symbol><mask id="max-dark_b" mask-type="alpha" maskUnits="userSpaceOnUse" x="0" y="0" width="34" height="56"><path d="M0 13.977a4 4 0 0 1 1.57-3.178l13-9.94a4 4 0 0 1 4.86 0l13 9.94A4 4 0 0 1 34 13.977v28.046a4 4 0 0 1-1.57 3.178l-13 9.94a4 4 0 0 1-4.86 0l-13-9.94A4 4 0 0 1 0 42.023V13.977z" fill="url(#max-dark_a)" fill-opacity=".95" /></mask><radialGradient id="max-dark_a" cx="0" cy="0" r="1" gradientUnits="userSpaceOnUse" gradientTransform="matrix(-23.20028 -66.4988 2217.88535 -773.782 25.305 42.989)"><stop /><stop offset="0" stop-color="#211602" /><stop offset="1" stop-color="#AC7109" /></radialGradient><radialGradient id="max-dark_d" cx="0" cy="0" r="1" gradientUnits="userSpaceOnUse" gradientTransform="matrix(-23.20028 -66.4988 2217.88535 -773.782 25.305 42.989)"><stop /><stop offset="0" stop-color="#211602" /><stop offset="1" stop-color="#AC7109" /></radialGradient><radialGradient id="max-dark_f" cx="0" cy="0" r="1" gradientUnits="userSpaceOnUse" gradientTransform="rotate(-106.704 33.791 12.046) scale(52.0707 812.895)"><stop offset=".063" stop-color="#201502" /><stop offset="1" stop-color="#C7830A" /></radialGradient><radialGradient id="max-dark_h" cx="0" cy="0" r="1" gradientUnits="userSpaceOnUse" gradientTransform="matrix(-71.55012 -29.74975 648.67148 -1560.09804 30.5 17.95)"><stop /><stop offset="0" stop-color="#211602" /><stop offset="1" stop-color="#AC7109" /></radialGradient><symbol fill="none" viewBox="0 0 34 57" id="max-light"><g mask="url(#max-light_a)"><g filter="url(#max-light_b)"><path d="M0 13.977a4 4 0 0 1 1.57-3.178l13-9.94a4 4 0 0 1 4.86 0l13 9.94A4 4 0 0 1 34 13.977v28.046a4 4 0 0 1-1.57 3.178l-13 9.94a4 4 0 0 1-4.86 0l-13-9.94A4 4 0 0 1 0 42.023V13.977z" fill="url(#max-light_c)" /></g><g filter="url(#max-light_d)"><path d="M34 42.023V13.977a4 4 0 0 0-1.57-3.178l-9-6.882C20.798 1.904 17 3.78 17 7.094V57l15.43-11.8A4 4 0 0 0 34 42.024z" fill="url(#max-light_e)" fill-opacity=".8" /></g><g filter="url(#max-light_f)"><path d="M14.57.858 0 12l14.57 11.142a4 4 0 0 0 4.86 0L34 12 19.43.858a4 4 0 0 0-4.86 0z" fill="url(#max-light_g)" fill-opacity=".8" /></g></g><defs><filter id="max-light_b" x="-1" y=".036" width="35" height="56.929" filterUnits="userSpaceOnUse" color-interpolation-filters="sRGB"><feFlood flood-opacity="0" result="BackgroundImageFix"></feFlood><feBlend in="SourceGraphic" in2="BackgroundImageFix" result="shape"></feBlend><feColorMatrix in="SourceAlpha" values="0 0 0 0 0 0 0 0 0 0 0 0 0 0 0 0 0 0 127 0" result="hardAlpha"></feColorMatrix><feOffset></feOffset><feGaussianBlur stdDeviation="10"></feGaussianBlur><feComposite in2="hardAlpha" operator="arithmetic" k2="-1" k3="1"></feComposite><feColorMatrix values="0 0 0 0 1 0 0 0 0 0.69 0 0 0 0 0.225 0 0 0 0.4 0"></feColorMatrix><feBlend in2="shape" result="effect1_innerShadow"></feBlend><feColorMatrix in="SourceAlpha" values="0 0 0 0 0 0 0 0 0 0 0 0 0 0 0 0 0 0 127 0" result="hardAlpha"></feColorMatrix><feOffset dx="-1" dy="1"></feOffset><feGaussianBlur stdDeviation=".5"></feGaussianBlur><feComposite in2="hardAlpha" operator="arithmetic" k2="-1" k3="1"></feComposite><feColorMatrix values="0 0 0 0 1 0 0 0 0 1 0 0 0 0 1 0 0 0 0.5 0"></feColorMatrix><feBlend in2="effect1_innerShadow" result="effect2_innerShadow"></feBlend></filter><filter id="max-light_d" x="15" y="1.087" width="21" height="57.913" filterUnits="userSpaceOnUse" color-interpolation-filters="sRGB"><feFlood flood-opacity="0" result="BackgroundImageFix"></feFlood><feBlend in="SourceGraphic" in2="BackgroundImageFix" result="shape"></feBlend><feColorMatrix in="SourceAlpha" values="0 0 0 0 0 0 0 0 0 0 0 0 0 0 0 0 0 0 127 0" result="hardAlpha"></feColorMatrix><feOffset></feOffset><feGaussianBlur stdDeviation="10"></feGaussianBlur><feComposite in2="hardAlpha" operator="arithmetic" k2="-1" k3="1"></feComposite><feColorMatrix values="0 0 0 0 1 0 0 0 0 0.69 0 0 0 0 0.225 0 0 0 0.4 0"></feColorMatrix><feBlend in2="shape" result="effect1_innerShadow"></feBlend><feColorMatrix in="SourceAlpha" values="0 0 0 0 0 0 0 0 0 0 0 0 0 0 0 0 0 0 127 0" result="hardAlpha"></feColorMatrix><feOffset dx="-1" dy="1"></feOffset><feGaussianBlur stdDeviation=".5"></feGaussianBlur><feComposite in2="hardAlpha" operator="arithmetic" k2="-1" k3="1"></feComposite><feColorMatrix values="0 0 0 0 1 0 0 0 0 1 0 0 0 0 1 0 0 0 0.5 0"></feColorMatrix><feBlend in2="effect1_innerShadow" result="effect2_innerShadow"></feBlend><feGaussianBlur stdDeviation="1" result="effect3_foregroundBlur"></feGaussianBlur></filter><filter id="max-light_f" x="-1" y="-.964" width="37" height="26.929" filterUnits="userSpaceOnUse" color-interpolation-filters="sRGB"><feFlood flood-opacity="0" result="BackgroundImageFix"></feFlood><feBlend in="SourceGraphic" in2="BackgroundImageFix" result="shape"></feBlend><feColorMatrix in="SourceAlpha" values="0 0 0 0 0 0 0 0 0 0 0 0 0 0 0 0 0 0 127 0" result="hardAlpha"></feColorMatrix><feOffset dx="2" dy="2"></feOffset><feGaussianBlur stdDeviation="8"></feGaussianBlur><feComposite in2="hardAlpha" operator="arithmetic" k2="-1" k3="1"></feComposite><feColorMatrix values="0 0 0 0 1 0 0 0 0 0.72 0 0 0 0 3.33786e-08 0 0 0 0.2 0"></feColorMatrix><feBlend in2="shape" result="effect1_innerShadow"></feBlend><feColorMatrix in="SourceAlpha" values="0 0 0 0 0 0 0 0 0 0 0 0 0 0 0 0 0 0 127 0" result="hardAlpha"></feColorMatrix><feOffset dx="-2"></feOffset><feGaussianBlur stdDeviation=".5"></feGaussianBlur><feComposite in2="hardAlpha" operator="arithmetic" k2="-1" k3="1"></feComposite><feColorMatrix values="0 0 0 0 1 0 0 0 0 1 0 0 0 0 1 0 0 0 0.9 0"></feColorMatrix><feBlend in2="effect1_innerShadow" result="effect2_innerShadow"></feBlend><feGaussianBlur stdDeviation=".5" result="effect3_foregroundBlur"></feGaussianBlur></filter></defs></symbol><mask id="max-light_a" mask-type="alpha" maskUnits="userSpaceOnUse" x="0" y="0" width="34" height="56"><path opacity=".92" d="M0 13.977a4 4 0 0 1 1.57-3.178l13-9.94a4 4 0 0 1 4.86 0l13 9.94A4 4 0 0 1 34 13.977v28.046a4 4 0 0 1-1.57 3.178l-13 9.94a4 4 0 0 1-4.86 0l-13-9.94A4 4 0 0 1 0 42.023V13.977z" fill="#FF8080" /></mask><radialGradient id="max-light_c" cx="0" cy="0" r="1" gradientUnits="userSpaceOnUse" gradientTransform="rotate(68.642 -12.067 9.849) scale(42.4129 24.8627)"><stop stop-color="#FFFFFE" /><stop offset="1" stop-color="#FFF6E4" /></radialGradient><radialGradient id="max-light_e" cx="0" cy="0" r="1" gradientUnits="userSpaceOnUse" gradientTransform="matrix(0 70.5 -20.6638 0 25 6)"><stop stop-color="#FFEAB4" /><stop offset="1" stop-color="#FFE7B4" /></radialGradient><radialGradient id="max-light_g" cx="0" cy="0" r="1" gradientUnits="userSpaceOnUse" gradientTransform="matrix(-40.99972 -8.45034 184.25306 -893.96653 30.5 17.95)"><stop offset=".036" stop-color="#FFFAED" /><stop offset="1" stop-color="#FFEDC9" /></radialGradient><symbol fill="none" viewBox="0 0 34 41" id="mid-dark"><g mask="url(#mid-dark_b)"><g filter="url(#mid-dark_c)"><path d="M0 13.977a4 4 0 0 1 1.57-3.178l13-9.94a4 4 0 0 1 4.86 0l13 9.94A4 4 0 0 1 34 13.977v12.046a4 4 0 0 1-1.57 3.178l-13 9.94a4 4 0 0 1-4.86 0l-13-9.94A4 4 0 0 1 0 26.023V13.977z" fill="url(#mid-dark_d)" fill-opacity=".9" /></g><g filter="url(#mid-dark_e)"><path d="M34 27.012V12.988a2 2 0 0 0-.785-1.588L17-1v42l16.215-12.4A2 2 0 0 0 34 27.012z" fill="url(#mid-dark_f)" fill-opacity=".9" /></g><g filter="url(#mid-dark_g)"><path d="M17-1 0 12l14.57 11.142a4 4 0 0 0 4.86 0L34 12 17-1z" fill="url(#mid-dark_h)" fill-opacity=".9" /></g></g><defs><filter id="mid-dark_c" x="-1" y=".036" width="37" height="41.929" filterUnits="userSpaceOnUse" color-interpolation-filters="sRGB"><feFlood flood-opacity="0" result="BackgroundImageFix"></feFlood><feBlend in="SourceGraphic" in2="BackgroundImageFix" result="shape"></feBlend><feColorMatrix in="SourceAlpha" values="0 0 0 0 0 0 0 0 0 0 0 0 0 0 0 0 0 0 127 0" result="hardAlpha"></feColorMatrix><feOffset dx="2" dy="2"></feOffset><feGaussianBlur stdDeviation="5"></feGaussianBlur><feComposite in2="hardAlpha" operator="arithmetic" k2="-1" k3="1"></feComposite><feColorMatrix values="0 0 0 0 0.362929 0 0 0 0 0.455371 0 0 0 0 0.554189 0 0 0 0.6 0"></feColorMatrix><feBlend in2="shape" result="effect1_innerShadow"></feBlend><feColorMatrix in="SourceAlpha" values="0 0 0 0 0 0 0 0 0 0 0 0 0 0 0 0 0 0 127 0" result="hardAlpha"></feColorMatrix><feOffset dx="-1"></feOffset><feGaussianBlur stdDeviation=".5"></feGaussianBlur><feComposite in2="hardAlpha" operator="arithmetic" k2="-1" k3="1"></feComposite><feColorMatrix values="0 0 0 0 1 0 0 0 0 1 0 0 0 0 1 0 0 0 0.2 0"></feColorMatrix><feBlend in2="effect1_innerShadow" result="effect2_innerShadow"></feBlend></filter><filter id="mid-dark_e" x="15" y="-3" width="21" height="46" filterUnits="userSpaceOnUse" color-interpolation-filters="sRGB"><feFlood flood-opacity="0" result="BackgroundImageFix"></feFlood><feBlend in="SourceGraphic" in2="BackgroundImageFix" result="shape"></feBlend><feColorMatrix in="SourceAlpha" values="0 0 0 0 0 0 0 0 0 0 0 0 0 0 0 0 0 0 127 0" result="hardAlpha"></feColorMatrix><feOffset dx="2" dy="2"></feOffset><feGaussianBlur stdDeviation="8"></feGaussianBlur><feComposite in2="hardAlpha" operator="arithmetic" k2="-1" k3="1"></feComposite><feColorMatrix values="0 0 0 0 0.362929 0 0 0 0 0.455371 0 0 0 0 0.554189 0 0 0 0.6 0"></feColorMatrix><feBlend in2="shape" result="effect1_innerShadow"></feBlend><feColorMatrix in="SourceAlpha" values="0 0 0 0 0 0 0 0 0 0 0 0 0 0 0 0 0 0 127 0" result="hardAlpha"></feColorMatrix><feOffset dx="-1" dy="1"></feOffset><feGaussianBlur stdDeviation=".5"></feGaussianBlur><feComposite in2="hardAlpha" operator="arithmetic" k2="-1" k3="1"></feComposite><feColorMatrix values="0 0 0 0 1 0 0 0 0 1 0 0 0 0 1 0 0 0 0.2 0"></feColorMatrix><feBlend in2="effect1_innerShadow" result="effect2_innerShadow"></feBlend><feGaussianBlur stdDeviation="1" result="effect3_foregroundBlur"></feGaussianBlur></filter><filter id="mid-dark_g" x="-2" y="-2" width="38" height="27.965" filterUnits="userSpaceOnUse" color-interpolation-filters="sRGB"><feFlood flood-opacity="0" result="BackgroundImageFix"></feFlood><feBlend in="SourceGraphic" in2="BackgroundImageFix" result="shape"></feBlend><feColorMatrix in="SourceAlpha" values="0 0 0 0 0 0 0 0 0 0 0 0 0 0 0 0 0 0 127 0" result="hardAlpha"></feColorMatrix><feOffset dx="2" dy="2"></feOffset><feGaussianBlur stdDeviation="8"></feGaussianBlur><feComposite in2="hardAlpha" operator="arithmetic" k2="-1" k3="1"></feComposite><feColorMatrix values="0 0 0 0 0.362929 0 0 0 0 0.455371 0 0 0 0 0.554189 0 0 0 0.6 0"></feColorMatrix><feBlend in2="shape" result="effect1_innerShadow"></feBlend><feColorMatrix in="SourceAlpha" values="0 0 0 0 0 0 0 0 0 0 0 0 0 0 0 0 0 0 127 0" result="hardAlpha"></feColorMatrix><feOffset dx="-2"></feOffset><feGaussianBlur stdDeviation="1"></feGaussianBlur><feComposite in2="hardAlpha" operator="arithmetic" k2="-1" k3="1"></feComposite><feColorMatrix values="0 0 0 0 1 0 0 0 0 1 0 0 0 0 1 0 0 0 0.2 0"></feColorMatrix><feBlend in2="effect1_innerShadow" result="effect2_innerShadow"></feBlend><feGaussianBlur stdDeviation=".5" result="effect3_foregroundBlur"></feGaussianBlur></filter></defs></symbol><mask id="mid-dark_b" mask-type="alpha" maskUnits="userSpaceOnUse" x="0" y="0" width="34" height="40"><path opacity=".95" d="M0 13.977a4 4 0 0 1 1.57-3.178l13-9.94a4 4 0 0 1 4.86 0l13 9.94A4 4 0 0 1 34 13.977v12.046a4 4 0 0 1-1.57 3.178l-13 9.94a4 4 0 0 1-4.86 0l-13-9.94A4 4 0 0 1 0 26.023V13.977z" fill="url(#mid-dark_a)" fill-opacity=".95" /></mask><radialGradient id="mid-dark_a" cx="0" cy="0" r="1" gradientUnits="userSpaceOnUse" gradientTransform="rotate(-113.885 20.572 3.933) scale(82.2113 2670.94)"><stop /><stop offset="0" stop-color="#231600" /><stop offset="1" stop-color="#705C5E" /></radialGradient><radialGradient id="mid-dark_d" cx="0" cy="0" r="1" gradientUnits="userSpaceOnUse" gradientTransform="rotate(-113.885 20.572 3.933) scale(82.2113 2670.94)"><stop /><stop offset="0" stop-color="#231600" /><stop offset="1" stop-color="#705C5E" /></radialGradient><radialGradient id="mid-dark_f" cx="0" cy="0" r="1" gradientUnits="userSpaceOnUse" gradientTransform="rotate(-115.254 23.96 -3.392) scale(83.8533 1990.08)"><stop /><stop offset="0" stop-color="#231600" /><stop offset="1" stop-color="#705C5E" /></radialGradient><radialGradient id="mid-dark_h" cx="0" cy="0" r="1" gradientUnits="userSpaceOnUse" gradientTransform="matrix(-71.55012 -29.74975 648.67148 -1560.09804 30.5 17.95)"><stop /><stop offset="0" stop-color="#231600" /><stop offset="1" stop-color="#705C5E" /></radialGradient><symbol fill="none" viewBox="0 0 34 41" id="mid-light"><g mask="url(#mid-light_a)"><g filter="url(#mid-light_b)"><path d="M0 13.977a4 4 0 0 1 1.57-3.178l13-9.94a4 4 0 0 1 4.86 0l13 9.94A4 4 0 0 1 34 13.977v12.046a4 4 0 0 1-1.57 3.178l-13 9.94a4 4 0 0 1-4.86 0l-13-9.94A4 4 0 0 1 0 26.023V13.977z" fill="url(#mid-light_c)" fill-opacity=".9" /></g><g filter="url(#mid-light_d)"><path d="M34 27.012V12.988a2 2 0 0 0-.785-1.588L17-1v42l16.215-12.4A2 2 0 0 0 34 27.012z" fill="url(#mid-light_e)" fill-opacity=".9" /></g><g filter="url(#mid-light_f)"><path d="M14.57.858 0 12l14.57 11.142a4 4 0 0 0 4.86 0L34 12 19.43.858a4 4 0 0 0-4.86 0z" fill="url(#mid-light_g)" fill-opacity=".9" /></g></g><defs><filter id="mid-light_b" x="-1" y=".036" width="37" height="41.929" filterUnits="userSpaceOnUse" color-interpolation-filters="sRGB"><feFlood flood-opacity="0" result="BackgroundImageFix"></feFlood><feBlend in="SourceGraphic" in2="BackgroundImageFix" result="shape"></feBlend><feColorMatrix in="SourceAlpha" values="0 0 0 0 0 0 0 0 0 0 0 0 0 0 0 0 0 0 127 0" result="hardAlpha"></feColorMatrix><feOffset dx="2" dy="2"></feOffset><feGaussianBlur stdDeviation="5"></feGaussianBlur><feComposite in2="hardAlpha" operator="arithmetic" k2="-1" k3="1"></feComposite><feColorMatrix values="0 0 0 0 0.815479 0 0 0 0 0.82293 0 0 0 0 0.904885 0 0 0 0.6 0"></feColorMatrix><feBlend in2="shape" result="effect1_innerShadow"></feBlend><feColorMatrix in="SourceAlpha" values="0 0 0 0 0 0 0 0 0 0 0 0 0 0 0 0 0 0 127 0" result="hardAlpha"></feColorMatrix><feOffset dx="-1"></feOffset><feGaussianBlur stdDeviation=".5"></feGaussianBlur><feComposite in2="hardAlpha" operator="arithmetic" k2="-1" k3="1"></feComposite><feColorMatrix values="0 0 0 0 0.97 0 0 0 0 0.97 0 0 0 0 0.97 0 0 0 0.2 0"></feColorMatrix><feBlend in2="effect1_innerShadow" result="effect2_innerShadow"></feBlend></filter><filter id="mid-light_d" x="15" y="-3" width="21" height="46" filterUnits="userSpaceOnUse" color-interpolation-filters="sRGB"><feFlood flood-opacity="0" result="BackgroundImageFix"></feFlood><feBlend in="SourceGraphic" in2="BackgroundImageFix" result="shape"></feBlend><feColorMatrix in="SourceAlpha" values="0 0 0 0 0 0 0 0 0 0 0 0 0 0 0 0 0 0 127 0" result="hardAlpha"></feColorMatrix><feOffset dx="2" dy="2"></feOffset><feGaussianBlur stdDeviation="8"></feGaussianBlur><feComposite in2="hardAlpha" operator="arithmetic" k2="-1" k3="1"></feComposite><feColorMatrix values="0 0 0 0 0.783083 0 0 0 0 0.767481 0 0 0 0 0.76025 0 0 0 0.3 0"></feColorMatrix><feBlend in2="shape" result="effect1_innerShadow"></feBlend><feColorMatrix in="SourceAlpha" values="0 0 0 0 0 0 0 0 0 0 0 0 0 0 0 0 0 0 127 0" result="hardAlpha"></feColorMatrix><feOffset dx="-1" dy="1"></feOffset><feGaussianBlur stdDeviation=".5"></feGaussianBlur><feComposite in2="hardAlpha" operator="arithmetic" k2="-1" k3="1"></feComposite><feColorMatrix values="0 0 0 0 0.97 0 0 0 0 0.97 0 0 0 0 0.97 0 0 0 0.5 0"></feColorMatrix><feBlend in2="effect1_innerShadow" result="effect2_innerShadow"></feBlend><feGaussianBlur stdDeviation="1" result="effect3_foregroundBlur"></feGaussianBlur></filter><filter id="mid-light_f" x="-1" y="-.964" width="37" height="26.929" filterUnits="userSpaceOnUse" color-interpolation-filters="sRGB"><feFlood flood-opacity="0" result="BackgroundImageFix"></feFlood><feBlend in="SourceGraphic" in2="BackgroundImageFix" result="shape"></feBlend><feColorMatrix in="SourceAlpha" values="0 0 0 0 0 0 0 0 0 0 0 0 0 0 0 0 0 0 127 0" result="hardAlpha"></feColorMatrix><feOffset dx="2" dy="2"></feOffset><feGaussianBlur stdDeviation="3"></feGaussianBlur><feComposite in2="hardAlpha" operator="arithmetic" k2="-1" k3="1"></feComposite><feColorMatrix values="0 0 0 0 0.858292 0 0 0 0 0.848099 0 0 0 0 0.843375 0 0 0 0.6 0"></feColorMatrix><feBlend in2="shape" result="effect1_innerShadow"></feBlend><feColorMatrix in="SourceAlpha" values="0 0 0 0 0 0 0 0 0 0 0 0 0 0 0 0 0 0 127 0" result="hardAlpha"></feColorMatrix><feOffset dx="-2"></feOffset><feGaussianBlur stdDeviation=".5"></feGaussianBlur><feComposite in2="hardAlpha" operator="arithmetic" k2="-1" k3="1"></feComposite><feColorMatrix values="0 0 0 0 0.99 0 0 0 0 0.99 0 0 0 0 0.99 0 0 0 0.8 0"></feColorMatrix><feBlend in2="effect1_innerShadow" result="effect2_innerShadow"></feBlend><feGaussianBlur stdDeviation=".5" result="effect3_foregroundBlur"></feGaussianBlur></filter></defs></symbol><mask id="mid-light_a" mask-type="alpha" maskUnits="userSpaceOnUse" x="0" y="0" width="34" height="40"><path opacity=".92" d="M0 13.977a4 4 0 0 1 1.57-3.178l13-9.94a4 4 0 0 1 4.86 0l13 9.94A4 4 0 0 1 34 13.977v12.046a4 4 0 0 1-1.57 3.178l-13 9.94a4 4 0 0 1-4.86 0l-13-9.94A4 4 0 0 1 0 26.023V13.977z" fill="#171100" /></mask><radialGradient id="mid-light_c" cx="0" cy="0" r="1" gradientUnits="userSpaceOnUse" gradientTransform="rotate(-113.885 20.572 3.933) scale(82.2113 2670.94)"><stop stop-color="#EAE8E8" /><stop offset="1" stop-color="#EEEDEC" /></radialGradient><radialGradient id="mid-light_e" cx="0" cy="0" r="1" gradientUnits="userSpaceOnUse" gradientTransform="matrix(-46.00003 -44.00008 1044.24445 -1091.70896 37.5 48.5)"><stop stop-color="#E8E6E6" /><stop offset="1" stop-color="#D6D3D1" /></radialGradient><radialGradient id="mid-light_g" cx="0" cy="0" r="1" gradientUnits="userSpaceOnUse" gradientTransform="matrix(-39.99967 -17.4505 380.49391 -872.16064 30.5 17.95)"><stop stop-color="#F7F7F7" /><stop offset="1" stop-color="#EAE8E8" /></radialGradient><symbol fill="none" viewBox="0 0 34 34" id="min-dark"><g mask="url(#min-dark_a)"><g filter="url(#min-dark_b)"><path d="M0 13.988A2 2 0 0 1 .785 12.4l15-11.471a2 2 0 0 1 2.43 0l15 11.47A2 2 0 0 1 34 13.99v6.023a2 2 0 0 1-.785 1.588l-15 11.471a2 2 0 0 1-2.43 0l-15-11.47A2 2 0 0 1 0 20.01v-6.023z" fill="url(#min-dark_c)" fill-opacity=".65" /></g><g filter="url(#min-dark_d)"><path d="M34 20.012V13L17 26v8l16.215-12.4A2 2 0 0 0 34 20.012z" fill="url(#min-dark_e)" fill-opacity=".8" /></g><g filter="url(#min-dark_f)"><path d="M17 0 0 13l14.57 11.142a4 4 0 0 0 4.86 0L34 13 17 0z" fill="url(#min-dark_g)" fill-opacity=".7" /></g></g><defs><filter id="min-dark_b" x="-1" y=".518" width="36" height="33.965" filterUnits="userSpaceOnUse" color-interpolation-filters="sRGB"><feFlood flood-opacity="0" result="BackgroundImageFix"></feFlood><feBlend in="SourceGraphic" in2="BackgroundImageFix" result="shape"></feBlend><feColorMatrix in="SourceAlpha" values="0 0 0 0 0 0 0 0 0 0 0 0 0 0 0 0 0 0 127 0" result="hardAlpha"></feColorMatrix><feOffset dx="1" dy="1"></feOffset><feGaussianBlur stdDeviation="8"></feGaussianBlur><feComposite in2="hardAlpha" operator="arithmetic" k2="-1" k3="1"></feComposite><feColorMatrix values="0 0 0 0 0.440542 0 0 0 0 0.400529 0 0 0 0 0.367792 0 0 0 0.2 0"></feColorMatrix><feBlend in2="shape" result="effect1_innerShadow"></feBlend><feColorMatrix in="SourceAlpha" values="0 0 0 0 0 0 0 0 0 0 0 0 0 0 0 0 0 0 127 0" result="hardAlpha"></feColorMatrix><feOffset dx="-1"></feOffset><feGaussianBlur stdDeviation="1"></feGaussianBlur><feComposite in2="hardAlpha" operator="arithmetic" k2="-1" k3="1"></feComposite><feColorMatrix values="0 0 0 0 1 0 0 0 0 1 0 0 0 0 1 0 0 0 0.2 0"></feColorMatrix><feBlend in2="effect1_innerShadow" result="effect2_innerShadow"></feBlend></filter><filter id="min-dark_d" x="15" y="11" width="21" height="25" filterUnits="userSpaceOnUse" color-interpolation-filters="sRGB"><feFlood flood-opacity="0" result="BackgroundImageFix"></feFlood><feBlend in="SourceGraphic" in2="BackgroundImageFix" result="shape"></feBlend><feColorMatrix in="SourceAlpha" values="0 0 0 0 0 0 0 0 0 0 0 0 0 0 0 0 0 0 127 0" result="hardAlpha"></feColorMatrix><feOffset dx="2" dy="2"></feOffset><feGaussianBlur stdDeviation="8"></feGaussianBlur><feComposite in2="hardAlpha" operator="arithmetic" k2="-1" k3="1"></feComposite><feColorMatrix values="0 0 0 0 0.440542 0 0 0 0 0.400529 0 0 0 0 0.367792 0 0 0 0.2 0"></feColorMatrix><feBlend in2="shape" result="effect1_innerShadow"></feBlend><feColorMatrix in="SourceAlpha" values="0 0 0 0 0 0 0 0 0 0 0 0 0 0 0 0 0 0 127 0" result="hardAlpha"></feColorMatrix><feOffset dx="-1" dy="1"></feOffset><feGaussianBlur stdDeviation=".5"></feGaussianBlur><feComposite in2="hardAlpha" operator="arithmetic" k2="-1" k3="1"></feComposite><feColorMatrix values="0 0 0 0 1 0 0 0 0 1 0 0 0 0 1 0 0 0 0.2 0"></feColorMatrix><feBlend in2="effect1_innerShadow" result="effect2_innerShadow"></feBlend><feGaussianBlur stdDeviation="1" result="effect3_foregroundBlur"></feGaussianBlur></filter><filter id="min-dark_f" x="-2" y="-1" width="37" height="26.965" filterUnits="userSpaceOnUse" color-interpolation-filters="sRGB"><feFlood flood-opacity="0" result="BackgroundImageFix"></feFlood><feBlend in="SourceGraphic" in2="BackgroundImageFix" result="shape"></feBlend><feColorMatrix in="SourceAlpha" values="0 0 0 0 0 0 0 0 0 0 0 0 0 0 0 0 0 0 127 0" result="hardAlpha"></feColorMatrix><feOffset dx="-2"></feOffset><feGaussianBlur stdDeviation="1"></feGaussianBlur><feComposite in2="hardAlpha" operator="arithmetic" k2="-1" k3="1"></feComposite><feColorMatrix values="0 0 0 0 0.9272 0 0 0 0 0.91928 0 0 0 0 0.9128 0 0 0 0.15 0"></feColorMatrix><feBlend in2="shape" result="effect1_innerShadow"></feBlend><feGaussianBlur stdDeviation=".5" result="effect2_foregroundBlur"></feGaussianBlur></filter></defs></symbol><mask id="min-dark_a" mask-type="alpha" maskUnits="userSpaceOnUse" x="0" y="1" width="34" height="32"><path d="M0 14.977a4 4 0 0 1 1.57-3.178l13-9.94a4 4 0 0 1 4.86 0l13 9.94A4 4 0 0 1 34 14.977v4.046a4 4 0 0 1-1.57 3.178l-13 9.94a4 4 0 0 1-4.86 0l-13-9.94A4 4 0 0 1 0 19.023v-4.046z" fill="#151311" /></mask><radialGradient id="min-dark_c" cx="0" cy="0" r="1" gradientUnits="userSpaceOnUse" gradientTransform="rotate(-156.928 17.857 10.218) scale(77.2877 1713.92)"><stop stop-color="#131110" /><stop offset="1" /></radialGradient><radialGradient id="min-dark_e" cx="0" cy="0" r="1" gradientUnits="userSpaceOnUse" gradientTransform="matrix(-20.45652 -97.30035 2134.8291 -448.82847 23.08 22.371)"><stop offset="0" stop-color="#3A3530" /><stop offset="1" stop-color="#49423D" /></radialGradient><radialGradient id="min-dark_g" cx="0" cy="0" r="1" gradientUnits="userSpaceOnUse" gradientTransform="matrix(-39.49969 -11.95049 260.57095 -861.25955 30.5 18.95)"><stop stop-color="#3E3934" /><stop offset="1" stop-color="#221F1C" /></radialGradient><symbol fill="none" viewBox="0 0 34 34" id="min-light"><g mask="url(#min-light_a)"><g filter="url(#min-light_b)"><path d="M0 13.988A2 2 0 0 1 .785 12.4l15-11.471a2 2 0 0 1 2.43 0l15 11.47A2 2 0 0 1 34 13.99v6.023a2 2 0 0 1-.785 1.588l-15 11.471a2 2 0 0 1-2.43 0l-15-11.47A2 2 0 0 1 0 20.01v-6.023z" fill="url(#min-light_c)" fill-opacity=".8" /></g><g filter="url(#min-light_d)"><path d="M34 20.012v-2.965c0-1.657-1.899-2.595-3.215-1.588l-13 9.94A2 2 0 0 0 17 26.99V34l16.215-12.4A2 2 0 0 0 34 20.012z" fill="url(#min-light_e)" fill-opacity=".8" /></g><g filter="url(#min-light_f)"><path d="M17 0 0 13l14.57 11.142a4 4 0 0 0 4.86 0L34 13 17 0z" fill="url(#min-light_g)" fill-opacity=".9" /></g></g><defs><filter id="min-light_b" x="-1" y=".518" width="36" height="33.965" filterUnits="userSpaceOnUse" color-interpolation-filters="sRGB"><feFlood flood-opacity="0" result="BackgroundImageFix"></feFlood><feBlend in="SourceGraphic" in2="BackgroundImageFix" result="shape"></feBlend><feColorMatrix in="SourceAlpha" values="0 0 0 0 0 0 0 0 0 0 0 0 0 0 0 0 0 0 127 0" result="hardAlpha"></feColorMatrix><feOffset dx="1" dy="1"></feOffset><feGaussianBlur stdDeviation="8"></feGaussianBlur><feComposite in2="hardAlpha" operator="arithmetic" k2="-1" k3="1"></feComposite><feColorMatrix values="0 0 0 0 0.414167 0 0 0 0 0.414167 0 0 0 0 0.414167 0 0 0 0.2 0"></feColorMatrix><feBlend in2="shape" result="effect1_innerShadow"></feBlend><feColorMatrix in="SourceAlpha" values="0 0 0 0 0 0 0 0 0 0 0 0 0 0 0 0 0 0 127 0" result="hardAlpha"></feColorMatrix><feOffset dx="-1"></feOffset><feGaussianBlur stdDeviation="1"></feGaussianBlur><feComposite in2="hardAlpha" operator="arithmetic" k2="-1" k3="1"></feComposite><feColorMatrix values="0 0 0 0 0.98 0 0 0 0 0.98 0 0 0 0 0.98 0 0 0 0.2 0"></feColorMatrix><feBlend in2="effect1_innerShadow" result="effect2_innerShadow"></feBlend></filter><filter id="min-light_d" x="15" y="13.043" width="21" height="22.956" filterUnits="userSpaceOnUse" color-interpolation-filters="sRGB"><feFlood flood-opacity="0" result="BackgroundImageFix"></feFlood><feBlend in="SourceGraphic" in2="BackgroundImageFix" result="shape"></feBlend><feColorMatrix in="SourceAlpha" values="0 0 0 0 0 0 0 0 0 0 0 0 0 0 0 0 0 0 127 0" result="hardAlpha"></feColorMatrix><feOffset dx="-1" dy="1"></feOffset><feGaussianBlur stdDeviation=".5"></feGaussianBlur><feComposite in2="hardAlpha" operator="arithmetic" k2="-1" k3="1"></feComposite><feColorMatrix values="0 0 0 0 0.98 0 0 0 0 0.98 0 0 0 0 0.98 0 0 0 0.5 0"></feColorMatrix><feBlend in2="shape" result="effect1_innerShadow"></feBlend><feGaussianBlur stdDeviation="1" result="effect2_foregroundBlur"></feGaussianBlur></filter><filter id="min-light_f" x="-1" y="-1" width="37" height="27.965" filterUnits="userSpaceOnUse" color-interpolation-filters="sRGB"><feFlood flood-opacity="0" result="BackgroundImageFix"></feFlood><feBlend in="SourceGraphic" in2="BackgroundImageFix" result="shape"></feBlend><feColorMatrix in="SourceAlpha" values="0 0 0 0 0 0 0 0 0 0 0 0 0 0 0 0 0 0 127 0" result="hardAlpha"></feColorMatrix><feOffset dx="2" dy="2"></feOffset><feGaussianBlur stdDeviation="10"></feGaussianBlur><feComposite in2="hardAlpha" operator="arithmetic" k2="-1" k3="1"></feComposite><feColorMatrix values="0 0 0 0 0.643333 0 0 0 0 0.643333 0 0 0 0 0.643333 0 0 0 0.2 0"></feColorMatrix><feBlend in2="shape" result="effect1_innerShadow"></feBlend><feColorMatrix in="SourceAlpha" values="0 0 0 0 0 0 0 0 0 0 0 0 0 0 0 0 0 0 127 0" result="hardAlpha"></feColorMatrix><feOffset dx="-2"></feOffset><feGaussianBlur stdDeviation=".5"></feGaussianBlur><feComposite in2="hardAlpha" operator="arithmetic" k2="-1" k3="1"></feComposite><feColorMatrix values="0 0 0 0 0.98 0 0 0 0 0.98 0 0 0 0 0.98 0 0 0 0.8 0"></feColorMatrix><feBlend in2="effect1_innerShadow" result="effect2_innerShadow"></feBlend><feGaussianBlur stdDeviation=".5" result="effect3_foregroundBlur"></feGaussianBlur></filter></defs></symbol><mask id="min-light_a" mask-type="alpha" maskUnits="userSpaceOnUse" x="0" y="1" width="34" height="32"><path opacity=".92" d="M0 14.977a4 4 0 0 1 1.57-3.178l13-9.94a4 4 0 0 1 4.86 0l13 9.94A4 4 0 0 1 34 14.977v4.046a4 4 0 0 1-1.57 3.178l-13 9.94a4 4 0 0 1-4.86 0l-13-9.94A4 4 0 0 1 0 19.023v-4.046z" fill="#2B1F00" /></mask><radialGradient id="min-light_c" cx="0" cy="0" r="1" gradientUnits="userSpaceOnUse" gradientTransform="rotate(-161.19 17.345 10.8) scale(51.5342 1142.82)"><stop stop-color="#FAFAFA" /><stop offset="1" stop-color="#FAFAFA" /></radialGradient><radialGradient id="min-light_e" cx="0" cy="0" r="1" gradientUnits="userSpaceOnUse" gradientTransform="matrix(-30.50005 -3.49985 5.63615 -49.11719 31.5 21.5)"><stop stop-color="#EAEAEA" /><stop offset="0" stop-color="#E9E9E9" /><stop offset="1" stop-color="#E4E4E4" /></radialGradient><radialGradient id="min-light_g" cx="0" cy="0" r="1" gradientUnits="userSpaceOnUse" gradientTransform="matrix(-31.99999 -7.99985 4.66289 -18.65188 35.5 15)"><stop stop-color="#FAFAFA" /><stop offset="1" stop-color="#F8F8F8" /></radialGradient></defs><use id="button-dark-usage" xlink:href="#button-dark" class="sprite-symbol-usage" /><use id="button-hover-dark-usage" xlink:href="#button-hover-dark" class="sprite-symbol-usage" /><use id="button-hover-light-usage" xlink:href="#button-hover-light" class="sprite-symbol-usage" /><use id="button-light-usage" xlink:href="#button-light" class="sprite-symbol-usage" /><use id="extra-dark-usage" xlink:href="#extra-dark" class="sprite-symbol-usage" /><use id="extra-light-usage" xlink:href="#extra-light" class="sprite-symbol-usage" /><use id="max-dark-usage" xlink:href="#max-dark" class="sprite-symbol-usage" /><use id="max-light-usage" xlink:href="#max-light" class="sprite-symbol-usage" /><use id="mid-dark-usage" xlink:href="#mid-dark" class="sprite-symbol-usage" /><use id="mid-light-usage" xlink:href="#mid-light" class="sprite-symbol-usage" /><use id="min-dark-usage" xlink:href="#min-dark" class="sprite-symbol-usage" /><use id="min-light-usage" xlink:href="#min-light" class="sprite-symbol-usage" /></svg>